<svg xmlns="http://www.w3.org/2000/svg" fill="none" viewBox="0 0 95 96"><path fill="#fff" d="M10.886 86h73.23a.995.995 0 0 0 .989-1V11c0-.552-.443-1-.99-1H10.886a.995.995 0 0 0-.99 1v74c0 .552.443 1 .99 1z"/><path stroke="#FF9810" stroke-width="2" d="M66.303 41c3.279 0 5.937-2.686 5.937-6s-2.658-6-5.937-6c-3.28 0-5.938 2.686-5.938 6s2.658 6 5.938 6z" clip-rule="evenodd"/><path stroke="#A6CCC3" stroke-width="2" d="m57.19 48.13-5.222 7.155a.986.986 0 0 1-1.575.024L41.639 44.01a1.972 1.972 0 0 0-1.559-.768c-.608 0-1.183.283-1.558.767L23.214 63.767c-1.016 1.312-.091 3.232 1.559 3.232h45.455c1.623 0 2.556-1.867 1.593-3.186L60.377 48.129a1.973 1.973 0 0 0-1.593-.813c-.63 0-1.22.302-1.594.813z" clip-rule="evenodd"/><path fill="#605E5C" fill-rule="evenodd" d="M10.886 88h73.229c1.637 0 2.969-1.346 2.969-3V11c0-1.654-1.332-3-2.97-3H10.887C9.25 8 7.918 9.346 7.918 11v74c0 1.654 1.332 3 2.969 3zm-.99-77c0-.552.443-1 .99-1h73.229c.546 0 .99.448.99 1v74c0 .552-.444 1-.99 1h-73.23a.995.995 0 0 1-.989-1V11z" clip-rule="evenodd" opacity=".64"/></svg>